<?xml version="1.0" encoding="iso-8859-1"?>
<!-- Uploaded to: SVG Repo, www.svgrepo.com, Generator: SVG Repo Mixer Tools -->
<svg fill="#000000" height="800px" width="800px" version="1.1" id="Layer_1" xmlns="http://www.w3.org/2000/svg" xmlns:xlink="http://www.w3.org/1999/xlink" 
	 viewBox="0 0 512.004 512.004" xml:space="preserve">
<g>
	<g>
		<path d="M442.306,376.33c-3.58-2.429-8.454-1.497-10.885,2.085c-26.8,39.492-71.173,63.069-118.703,63.069
			c-4.329,0-7.837,3.509-7.837,7.837c0,4.328,3.508,7.837,7.837,7.837c52.729,0,101.952-26.146,131.672-69.941
			C446.821,383.634,445.888,378.761,442.306,376.33z"/>
	</g>
</g>
<g>
	<g>
		<path d="M464.038,302.59c-4.338-0.348-8.094,2.869-8.441,7.183c-1.211,15.041-4.777,29.711-10.598,43.599
			c-1.674,3.992,0.206,8.584,4.198,10.257c0.989,0.415,2.016,0.611,3.026,0.611c3.064,0,5.973-1.808,7.231-4.81
			c6.463-15.421,10.422-31.704,11.766-48.4C471.568,306.716,468.352,302.938,464.038,302.59z"/>
	</g>
</g>
<g>
	<g>
		<path d="M191.96,146.577h-55.992c-14.762,0-26.772-12.01-26.772-26.772c0-14.761,12.01-26.771,26.772-26.771h25.764
			c4.329,0,7.837-3.509,7.837-7.837c0-4.328-3.508-7.837-7.837-7.837h-25.764c-23.405,0-42.446,19.041-42.446,42.445
			c0,23.406,19.041,42.446,42.446,42.446h55.992c4.329,0,7.837-3.509,7.837-7.837C199.797,150.086,196.289,146.577,191.96,146.577z"
			/>
	</g>
</g>
<g>
	<g>
		<path d="M218.303,0h-34.13c-4.329,0-7.837,3.509-7.837,7.837c0,4.328,3.508,7.837,7.837,7.837h34.129
			c17.007,0,30.843,13.837,30.843,30.844c0,17.007-13.836,30.843-30.843,30.843h-30.228c-4.329,0-7.837,3.509-7.837,7.837
			c0,4.328,3.508,7.837,7.837,7.837h30.228c25.649,0,46.517-20.868,46.517-46.517C264.819,20.868,243.952,0,218.303,0z"/>
	</g>
</g>
<g>
	<g>
		<path d="M385.231,103.243h-62.227c-12.969,0-23.522-10.552-23.522-23.522c0-12.969,10.552-23.521,23.522-23.521h21.635
			c4.329,0,7.837-3.509,7.837-7.837c0-4.328-3.508-7.837-7.837-7.837h-21.635c-21.613,0-39.195,17.583-39.195,39.194
			c0,21.613,17.583,39.195,39.195,39.195h62.227c10.166,0,18.438,8.271,18.438,18.437v17.06c0,4.328,3.508,7.837,7.837,7.837
			c4.329,0,7.837-3.509,7.837-7.837v-17.06C419.343,118.546,404.04,103.243,385.231,103.243z"/>
	</g>
</g>
<g>
	<g>
		<path d="M476.162,278.106h-6.681c0.092-0.717,0.154-1.446,0.154-2.198c0.002-8.006-5.534-13.983-9.982-18.786
			c-2.331-2.517-4.742-5.119-5.585-7.155c-0.761-1.837-0.87-5.238-0.978-8.527c-0.216-6.66-0.487-14.949-6.358-20.823
			c-5.871-5.871-14.161-6.141-20.822-6.358c-3.289-0.108-6.69-0.217-8.527-0.978c-2.036-0.843-4.639-3.253-7.156-5.583
			c-4.803-4.447-10.781-9.983-18.787-9.982c-7.998,0-13.973,5.533-18.775,9.979c-2.518,2.332-5.123,4.744-7.163,5.587
			c-1.836,0.76-5.236,0.869-8.524,0.976c-3.417,0.111-7.258,0.243-10.986,1.133c-12.525-16.271-32.182-26.784-54.256-26.784
			c-24.287,0-45.651,12.721-57.804,31.843c-9.735-5.328-20.897-8.362-32.757-8.362c-3.391,0-6.723,0.257-9.983,0.736
			c-3.954-13.958-16.8-24.216-32.008-24.216c-13.327,0-24.84,7.881-30.148,19.223c-7.647-2.964-15.952-4.598-24.636-4.598
			c-33.154,0-60.87,23.693-67.125,55.034c-4.753,5.673-7.649,12.946-7.757,20.884c-7.952,2.656-13.707,10.16-13.707,18.994
			c0,45.508,16.846,89.186,47.434,122.99c2.907,3.211,7.861,3.457,11.07,0.553c3.209-2.904,3.458-7.86,0.553-11.069
			c-10.687-11.81-19.532-24.941-26.394-38.976h67.902c4.329,0,7.837-3.509,7.837-7.837s-3.508-7.837-7.837-7.837h-74.59
			c-2.61-7.091-4.737-14.359-6.368-21.759h249.406c4.329,0,7.837-3.509,7.837-7.837s-3.508-7.837-7.837-7.837H32.737
			c-0.823-6.73-1.25-13.538-1.25-20.391c0-2.404,1.956-4.36,4.361-4.36h440.315c2.404,0,4.359,1.956,4.359,4.36
			c0,92.526-75.276,167.801-167.802,167.801H199.289c-37.461,0-72.917-12.124-102.54-35.063c-3.421-2.65-8.345-2.025-10.993,1.398
			c-2.65,3.422-2.025,8.345,1.398,10.994c17.5,13.551,36.864,23.643,57.429,30.066v10.108c0,15.745,12.809,28.554,28.554,28.554
			h165.737c15.745,0,28.554-12.809,28.554-28.554v-10.162c74.533-23.331,128.768-93.021,128.768-175.145
			C496.195,287.093,487.209,278.106,476.162,278.106z M159.187,204.278c7.968,0,14.707,5.327,16.868,12.604
			c-6.915,2.739-13.283,6.564-18.885,11.279c-4.109-4.975-8.9-9.365-14.237-13.017C145.583,208.771,151.868,204.278,159.187,204.278
			z M45.259,278.106c0.763-9.006,8.324-16.105,17.524-16.105c9.201,0,16.762,7.099,17.525,16.105H45.259z M108.69,278.106h-0.001
			h-8.573v-6.424c0-2.364,1.924-4.287,4.288-4.287c2.364,0,4.286,1.924,4.286,4.287V278.106z M132.786,278.106h-8.424v-6.424
			c0-11.006-8.954-19.961-19.96-19.961c-6.233,0-11.785,2.885-15.444,7.375c-1.779-2.267-3.843-4.302-6.143-6.042
			c5.236-6.061,12.968-9.907,21.587-9.907c15.733,0,28.533,12.8,28.533,28.534v3.726h0.001
			C132.87,276.303,132.817,277.202,132.786,278.106z M141.309,247.394c-7.912-11.989-21.497-19.919-36.906-19.919
			c-15.123,0-28.487,7.639-36.461,19.255c-1.682-0.263-3.405-0.402-5.16-0.402c-1.644,0-3.258,0.124-4.838,0.355
			c8.924-16.524,26.396-27.781,46.458-27.781c17.063,0,32.256,8.144,41.909,20.744C144.476,242.105,142.808,244.697,141.309,247.394
			z M197.653,278.106c0.774-1.118,2.064-1.855,3.524-1.855c1.459,0,2.748,0.737,3.521,1.855H197.653z M220.973,278.106
			c-1.205-9.861-9.614-17.528-19.795-17.528c-10.182,0-18.593,7.667-19.798,17.528h-8.625c1.238-14.599,13.508-26.103,28.422-26.103
			s27.183,11.503,28.42,26.103H220.973z M245.313,278.106c-1.266-23.249-20.576-41.776-44.134-41.776
			c-23.559,0-42.87,18.526-44.136,41.776h-8.582c1.276-27.977,24.431-50.348,52.718-50.348c28.286,0,51.44,22.371,52.716,50.348
			H245.313z M296.027,278.106h-0.001h-8.573v-21.048c0-2.364,1.923-4.287,4.286-4.287c2.365,0,4.288,1.924,4.288,4.287V278.106z
			 M320.272,278.106h-8.572v-21.048c0-11.006-8.954-19.961-19.962-19.961c-11.005,0-19.96,8.955-19.96,19.961v21.048h-2.211
			c-0.32-9.113-2.428-17.772-5.986-25.648c2.207-13.553,13.991-23.934,28.157-23.934c15.734,0,28.534,12.801,28.534,28.534V278.106z
			 M344.519,278.106h-8.573v-21.048c0-24.376-19.831-44.208-44.208-44.208c-16.695,0-31.255,9.303-38.774,22.997
			c-1.937-2.242-4.01-4.361-6.219-6.336c9.291-15.123,25.98-25.233,44.994-25.233c29.105,0,52.782,23.677,52.782,52.78
			L344.519,278.106z M398.041,278.106h-13.191c-0.233-0.694-0.364-1.433-0.364-2.203c0-3.836,3.12-6.957,6.956-6.957
			c3.838,0,6.96,3.121,6.96,6.957C398.404,276.674,398.273,277.413,398.041,278.106z M423.138,278.106h-9.176
			c0.071-0.725,0.116-1.459,0.116-2.203c0-12.478-10.153-22.63-22.634-22.63c-12.477,0-22.629,10.152-22.629,22.63
			c0,0.744,0.045,1.478,0.116,2.203h-8.739v-7.965c2.721-14.783,15.694-26.021,31.252-26.021c17.526,0,31.785,14.259,31.785,31.784
			C423.229,276.645,423.189,277.378,423.138,278.106z M453.094,278.106h-14.252c0.034-0.73,0.061-1.463,0.061-2.203
			c0-26.168-21.29-47.457-47.458-47.457c-12.809,0-24.432,5.119-32.977,13.398c-0.931-4.086-2.217-8.036-3.846-11.81
			c0.971-0.05,1.945-0.083,2.866-0.113c4.688-0.153,9.538-0.309,14.007-2.158c4.636-1.917,8.452-5.451,11.82-8.569
			c2.647-2.45,6.27-5.807,8.129-5.807c1.861,0,5.487,3.356,8.135,5.809c3.366,3.116,7.18,6.648,11.81,8.564
			c4.47,1.852,9.322,2.009,14.012,2.162c3.902,0.128,8.758,0.285,10.249,1.775c1.491,1.492,1.649,6.349,1.775,10.25
			c0.153,4.691,0.31,9.541,2.161,14.012c1.917,4.632,5.45,8.446,8.566,11.812c2.452,2.647,5.809,6.271,5.809,8.138
			C453.961,276.494,453.627,277.255,453.094,278.106z M351.753,483.446c0,7.102-5.778,12.88-12.88,12.88H173.135
			c-7.102,0-12.88-5.778-12.88-12.88v-5.978c12.686,2.742,25.743,4.146,39.033,4.146h113.431c13.392,0,26.451-1.456,39.034-4.193
			V483.446z"/>
	</g>
</g>
</svg>