<svg viewBox="0 0 2116 1207" xmlns="http://www.w3.org/2000/svg">
  <path d="M794.23 0.481934H639.506L573.666 811.96L468.322 81.136H326.766L221.422 811.96L155.582 0.481934H0.858003L122.662 1207H303.722L397.544 525.556L491.366 1207H672.426L794.23 0.481934ZM1619.92 0.481934H1465.2L1399.36 811.96L1294.01 81.136H1152.46L1047.11 811.96L981.271 0.481934H826.547L948.351 1207H1129.41L1223.23 525.556L1317.06 1207H1498.12L1619.92 0.481934ZM1962.26 760.934V1017.71C1962.26 1039.11 1945.8 1055.57 1924.41 1055.57H1858.57C1837.17 1055.57 1820.71 1039.11 1820.71 1017.71V189.772C1820.71 168.374 1837.17 151.914 1858.57 151.914H1924.41C1945.8 151.914 1962.26 168.374 1962.26 189.772V446.548H2115.34V145.33C2115.34 66.322 2049.5 0.481934 1970.49 0.481934H1809.19C1730.18 0.481934 1664.34 66.322 1664.34 145.33V1062.15C1664.34 1141.16 1730.18 1207 1809.19 1207H1970.49C2049.5 1207 2115.34 1141.16 2115.34 1062.15V760.934H1962.26Z" fill="#000" />
</svg>
