<svg id="그룹_13246" data-name="그룹 13246" xmlns="http://www.w3.org/2000/svg" width="600.629" height="156.593" viewBox="0 0 600.629 156.593">
  <g id="그룹_13237" data-name="그룹 13237" transform="translate(0 0)">
    <path id="합치기_1" data-name="합치기 1" d="M357.291,70.82V23.727a3.006,3.006,0,0,0-3.038-2.965H125.968a12.141,12.141,0,0,0-3.69,2.513,11.921,11.921,0,0,0-3.553,8.516V70.562h0l-15.164,0v-47.8a2.987,2.987,0,0,0-.765-2H27.334a12.218,12.218,0,0,0-8.59,3.475,11.644,11.644,0,0,0-3.56,8.388V70.82H0V2.965A3,3,0,0,1,3.036,0H557.855c0,2.18-.009,4.317-.011,6.535h-9.118V13.95h9.1l-.068,53.175c-.078,1.238-.208,2.481-.386,3.7H542.423c.065-.485.118-.98.155-1.476,0-2.2.006-17.706.011-20.106l0-3.079v-.45c.015-7.981.027-16.233.04-21.974a2.906,2.906,0,0,0-.863-2.079,3.044,3.044,0,0,0-2.172-.894H384.625a12.223,12.223,0,0,0-8.592,3.475,11.649,11.649,0,0,0-3.559,8.388v38.2ZM7.592,13.966H25.814V6.551H7.592Zm77.306,0H103.12V6.547H84.9Zm-38.652,0h18.22V6.551H46.246Zm115.955,0h18.224V6.545H162.2Zm-38.652,0h18.224V6.547H123.548Zm115.958,0H257.73V6.544H239.507Zm-38.652,0h18.224V6.545H200.855Zm154.61,0h18.221V6.542H355.464Zm-38.654,0h18.223V6.542H316.811Zm-38.652,0h18.223V6.544H278.159Zm154.61,0H450.99V6.538H432.769Zm-38.652,0h18.221V6.538H394.117Zm115.958,0h18.22V6.536h-18.22Zm-38.655,0h18.223V6.536H471.419Z" transform="translate(0.396 85.374)"/>
    <path id="합치기_2_-_윤곽선" data-name="합치기 2 - 윤곽선" d="M372.374,71.117H356.791V23.625a2.607,2.607,0,0,0-2.639-2.568H125.974a11.721,11.721,0,0,0-3.5,2.4,11.515,11.515,0,0,0-3.441,8.233V70.857H103.053v-48.2a2.592,2.592,0,0,0-.553-1.6H27.232a11.822,11.822,0,0,0-8.312,3.362,11.254,11.254,0,0,0-3.438,8.105V71.116H-.5V2.862A3.4,3.4,0,0,1,2.934-.5h555.22v.4c-.006,2.233-.01,4.37-.012,6.534v.4h-9.117v6.619h9.1v.4l-.069,53.2c-.078,1.257-.209,2.512-.389,3.729l-.05.34h-15.75l.059-.45c.063-.486.114-.971.15-1.44,0-1.125,0-5.628.006-9.983,0-4.38,0-8.91.006-10.108l.009-5.808c.012-7.129.024-14.5.036-19.7a2.515,2.515,0,0,0-.747-1.8,2.654,2.654,0,0,0-1.891-.778H384.522a11.82,11.82,0,0,0-8.311,3.362,11.253,11.253,0,0,0-3.439,8.105V71.116Zm-14.786-.8h14.387v-37.8a12.043,12.043,0,0,1,3.679-8.675,12.613,12.613,0,0,1,8.868-3.589H539.5a3.447,3.447,0,0,1,2.455,1.011,3.306,3.306,0,0,1,.98,2.361c-.012,5.2-.025,12.568-.036,19.7l-.009,5.808c0,1.2,0,5.727-.006,10.107s0,8.9-.006,10v.03c-.026.343-.06.694-.1,1.047h14.156c.151-1.084.263-2.2.333-3.309l.068-52.764h-9.1V6.034h9.118c0-1.9.006-3.785.011-5.738H2.934A2.6,2.6,0,0,0,.3,2.862V70.32H14.685v-37.8a12.044,12.044,0,0,1,3.678-8.675,12.615,12.615,0,0,1,8.869-3.589h75.632l.119.133a3.389,3.389,0,0,1,.867,2.264v47.4h14.389V31.688a12.305,12.305,0,0,1,3.676-8.8,12.51,12.51,0,0,1,3.815-2.6l.076-.033H354.151a3.405,3.405,0,0,1,3.437,3.365ZM26.111,14.262H7.092V6.049H26.111Zm-18.222-.8H25.313V6.846H7.889Zm95.528.794H84.4V6.048h19.02Zm-18.223-.8h17.425V6.844H85.194Zm-20.432.8H45.745V6.049H64.762Zm-18.22-.8H63.965V6.846H46.543Zm134.178.794H161.7V6.045h19.021Zm-18.223-.8h17.426V6.842H162.5Zm-20.429.8h-19.02V6.048h19.02Zm-18.223-.8h17.425V6.844H123.846Zm134.179.795H239.007V6.042h19.019Zm-18.221-.8h17.424V6.839H239.8Zm-20.43.8H200.355V6.045h19.019Zm-18.221-.8h17.424V6.842H201.153Zm172.828.794H354.964V6.041h19.017Zm-18.22-.8h17.422V6.837H355.761Zm-20.431.8H316.31V6.041h19.02Zm-18.223-.8h17.425V6.837H317.108Zm-20.429.8h-19.02V6.042h19.02Zm-18.223-.8h17.425V6.839H278.456Zm172.831.794h-19.02V6.038h19.02Zm-18.223-.8H450.49V6.835H433.064Zm-20.429.8h-19.02V6.038h19.02Zm-18.223-.8h17.425V6.835H394.413Zm134.178.795H509.573V6.036h19.017Zm-18.22-.8h17.423V6.832H510.371Zm-20.432.8h-19.02V6.036h19.02Zm-18.223-.8h17.425V6.832H471.716Z" transform="translate(0.5 85.476)"/>
    <path id="패스_9744" data-name="패스 9744" d="M558.2,76.41h0l-14.031,0L473.255,2.693,374.511,76.409H0L102.349,0H484.733l-.02.016L558.2,76.409ZM372.364,52.1,349.043,69.462h18.843L391.206,52.1Zm-326.205,0L22.838,69.462H41.68L65,52.1Zm357.3-23.153L380.135,46.309h18.842L422.3,28.943Zm-326.205,0L53.929,46.309H72.772L96.091,28.943Zm357.3-23.154L411.23,23.153h18.841L453.388,5.788Zm-326.206,0L85.024,23.153h18.842L127.183,5.788Z" transform="translate(0.401)"/>
    <path id="패스_9745" data-name="패스 9745" d="M-95.557-204.605a12.7,12.7,0,0,1,3.179-.208c3.544,0,6.046,1.352,6.046,4.731,0,2.964-2.345,4.939-5.89,4.939h-3.336Zm-3.857,24.125h3.857v-11.7h3.127c3.075.1,4.43,1.56,5.108,5.1a33.972,33.972,0,0,0,1.928,6.6h4.013c-.678-1.2-1.355-4-2.241-7.643a9.77,9.77,0,0,0-3.388-5.459,7.417,7.417,0,0,0,4.482-6.863,6.961,6.961,0,0,0-2.137-5.3c-1.72-1.56-4.118-2.235-7.87-2.235a40.245,40.245,0,0,0-6.88.624Zm25.852-13.258a17.918,17.918,0,0,1-17.877,17.834,17.873,17.873,0,0,1-17.825-17.834,17.929,17.929,0,0,1,17.825-17.937A17.974,17.974,0,0,1-73.562-193.739Zm3.284,0a21.239,21.239,0,0,0-21.161-21.213A21.239,21.239,0,0,0-112.6-193.739,21.117,21.117,0,0,0-91.439-172.63,21.117,21.117,0,0,0-70.278-193.739Z" transform="translate(670.907 214.954)"/>
  </g>
</svg>
