<svg xmlns="http://www.w3.org/2000/svg" xmlns:xlink="http://www.w3.org/1999/xlink" width="154" height="62" viewBox="0 0 154 62">
  <defs>
    <clipPath id="clip-아트보드_10">
      <rect width="154" height="62"/>
    </clipPath>
  </defs>
  <g id="아트보드_10" data-name="아트보드 – 10" clip-path="url(#clip-아트보드_10)">
    <rect width="154" height="62" fill="#fff"/>
    <g id="그룹_13232" data-name="그룹 13232" transform="translate(1999.28 -1939.615)">
      <path id="패스_402" data-name="패스 402" d="M-110.465-213.655a1.6,1.6,0,0,1,.4-.026c.444,0,.758.169.758.593,0,.371-.294.619-.738.619h-.418Zm-.483,3.023h.483V-212.1h.392c.385.013.555.2.64.639a4.256,4.256,0,0,0,.242.827h.5a5.167,5.167,0,0,1-.281-.958,1.225,1.225,0,0,0-.425-.684.93.93,0,0,0,.562-.86.872.872,0,0,0-.268-.665,1.384,1.384,0,0,0-.986-.28,5.035,5.035,0,0,0-.862.078Zm3.24-1.662a2.246,2.246,0,0,1-2.241,2.235,2.24,2.24,0,0,1-2.234-2.235,2.247,2.247,0,0,1,2.234-2.248A2.253,2.253,0,0,1-107.708-212.294Zm.412,0a2.662,2.662,0,0,0-2.652-2.659,2.662,2.662,0,0,0-2.652,2.659,2.646,2.646,0,0,0,2.652,2.645A2.646,2.646,0,0,0-107.3-212.294Z" transform="translate(-1768.106 2179.909)"/>
      <path id="패스_9719" data-name="패스 9719" d="M-645.56-176.661a2.939,2.939,0,0,1-2.133-.788,2.755,2.755,0,0,1-.815-2.076V-186a2.755,2.755,0,0,1,.815-2.075,2.939,2.939,0,0,1,2.133-.788,2.939,2.939,0,0,1,2.133.788,2.755,2.755,0,0,1,.815,2.075v6.472a2.755,2.755,0,0,1-.815,2.076A2.939,2.939,0,0,1-645.56-176.661Zm0-1.694a1.08,1.08,0,0,0,.815-.3,1.192,1.192,0,0,0,.295-.864V-186a1.192,1.192,0,0,0-.295-.864,1.08,1.08,0,0,0-.815-.3,1.082,1.082,0,0,0-.815.3,1.193,1.193,0,0,0-.294.864v6.472a1.193,1.193,0,0,0,.294.864A1.082,1.082,0,0,0-645.56-178.355Zm9.8,1.525-1.335-4.9h-.954v4.9h-1.838v-11.86h2.878a2.854,2.854,0,0,1,2.1.771,2.764,2.764,0,0,1,.78,2.059v1.3a3.051,3.051,0,0,1-.329,1.44,2.423,2.423,0,0,1-.937.983l1.544,5.3Zm-2.289-6.591h.954a1.142,1.142,0,0,0,.833-.288,1.086,1.086,0,0,0,.295-.813v-1.372a1.086,1.086,0,0,0-.295-.813A1.142,1.142,0,0,0-637.1-187h-.954Zm6.572-5.269h1.838v11.86h-1.838Zm5.271,12.03a4.014,4.014,0,0,1-1.179-.169l.243-1.61a2.718,2.718,0,0,0,.711.085,1.2,1.2,0,0,0,.953-.339,1.664,1.664,0,0,0,.295-1.1v-8.9h1.838v9.217a2.743,2.743,0,0,1-.78,2.042A2.832,2.832,0,0,1-626.209-176.661Zm5.67-12.03h1.838v11.86h-1.838Zm4.716,0h2.029l2.341,7.963v-7.963h1.8v11.86h-1.942l-2.428-7.591v7.591h-1.8Zm13.387,11.86v-11.86h1.838v5h2.185v-5h1.838v11.86h-1.838V-182H-600.6v5.168Zm11.531.169a2.94,2.94,0,0,1-2.133-.788,2.756,2.756,0,0,1-.815-2.076V-186a2.755,2.755,0,0,1,.815-2.075,2.94,2.94,0,0,1,2.133-.788,2.94,2.94,0,0,1,2.133.788,2.755,2.755,0,0,1,.815,2.075v6.472a2.755,2.755,0,0,1-.815,2.076A2.94,2.94,0,0,1-590.9-176.661Zm0-1.694a1.08,1.08,0,0,0,.815-.3,1.192,1.192,0,0,0,.295-.864V-186a1.192,1.192,0,0,0-.295-.864,1.079,1.079,0,0,0-.815-.3,1.079,1.079,0,0,0-.815.3,1.192,1.192,0,0,0-.3.864v6.472a1.192,1.192,0,0,0,.3.864A1.08,1.08,0,0,0-590.9-178.355Zm8.462,1.694a2.845,2.845,0,0,1-2.063-.771,2.667,2.667,0,0,1-.8-2.008v-9.251h1.838v9.251a1.08,1.08,0,0,0,.286.8.993.993,0,0,0,.737.288.994.994,0,0,0,.737-.288,1.081,1.081,0,0,0,.286-.8v-9.251h1.8v9.251a2.7,2.7,0,0,1-.78,2.008A2.786,2.786,0,0,1-582.442-176.661Zm8.185,0a3.141,3.141,0,0,1-1.543-.373,2.647,2.647,0,0,1-1.05-1.033,3.017,3.017,0,0,1-.373-1.508V-180l1.769-.186v.441a1.535,1.535,0,0,0,.312,1.017,1.07,1.07,0,0,0,.867.373,1.194,1.194,0,0,0,.858-.3,1.091,1.091,0,0,0,.321-.83,2.005,2.005,0,0,0-.338-1.1,8.843,8.843,0,0,0-1.344-1.457,10.493,10.493,0,0,1-1.847-2.084,3.479,3.479,0,0,1-.495-1.813,2.968,2.968,0,0,1,.746-2.126,2.683,2.683,0,0,1,2.047-.788,2.667,2.667,0,0,1,2.046.8,3,3,0,0,1,.745,2.135v.305l-1.769.186v-.339a1.734,1.734,0,0,0-.26-1.033.867.867,0,0,0-.745-.356.953.953,0,0,0-.746.288,1.225,1.225,0,0,0-.26.847,1.9,1.9,0,0,0,.347,1.076,10.893,10.893,0,0,0,1.335,1.483,12.526,12.526,0,0,1,1.847,2.126,3.32,3.32,0,0,1,.494,1.771,3.013,3.013,0,0,1-.373,1.508,2.646,2.646,0,0,1-1.049,1.033A3.143,3.143,0,0,1-574.257-176.661Zm5.393-12.03h5.219V-187h-3.381v3.3h2.688V-182h-2.688v3.473h3.381v1.694h-5.219Z" transform="translate(-1319.184 2153.817)"/>
    </g>
  </g>
</svg>
